# xmcd
#
# Track frame offsets:
#	150
#	18740
#	39010
#
# Disc length: 922 seconds
#
# Revision: 1
# Processed by: cddbd v1.5.2PL0 Copyright (c) Steve Scherf et al.
# Submitted via: EasyCDDAExtractor 12.0.0.1
#
DISCID=18039803
DTITLE=François Feldman - Joy [CD-Maxi)
DYEAR=1991
DGENRE=Pop
TTITLE0=Joy
TTITLE1=Belle Indienne
TTITLE2=Joy (Version Maxi)
EXTD=
EXTT0=
EXTT1=
EXTT2=
PLAYORDER=
